<?xml version="1.0" encoding="utf-8"?>
<!-- Generator: Adobe Illustrator 23.0.6, SVG Export Plug-In . SVG Version: 6.00 Build 0)  -->
<svg version="1.1" id="Слой_1" xmlns="http://www.w3.org/2000/svg" xmlns:xlink="http://www.w3.org/1999/xlink" x="0px" y="0px"
	 viewBox="0 0 512 512" style="enable-background:new 0 0 512 512;" xml:space="preserve">
<style type="text/css">
	.st0{fill:#2EBAEE;}
</style>
<path class="st0" d="M411.1,94.8c-1.9-3.8-6.5-5.2-10.3-3.3c-3.8,1.9-5.2,6.5-3.3,10.3c11.5,22.5,17.4,46.8,17.4,72.3
	c0,34.8-11.1,67.9-32,95.6c-8.7,11.5-13.5,26-13.5,40.7v1c0,20.8-16.9,37.7-37.7,37.7h-68.1v-96.6c27.5-3.7,48.8-27.4,48.8-55.9
	c0-4.2-3.4-7.6-7.6-7.6c-4.2,0-7.6,3.4-7.6,7.6c0,22.7-18.5,41.2-41.2,41.2s-41.2-18.5-41.2-41.2c0-4.2-3.4-7.6-7.6-7.6
	c-4.2,0-7.6,3.4-7.6,7.6c0,28.5,21.3,52.2,48.8,55.9V349h-68.1c-20.8,0-37.7-16.9-37.7-37.7v-1c0-14.8-4.8-29.1-13.9-41.3
	c-20.3-27.1-31.2-59.4-31.5-93.4c-0.4-42.5,15.9-82.7,46-113.1c30.1-30.4,70-47.2,112.5-47.3h0.3c50,0,96,22.8,126.4,62.6
	c2.6,3.3,7.3,4,10.7,1.4c3.4-2.6,4-7.3,1.4-10.7c-15.9-20.9-36.7-38.2-60.1-50C309.9,6.2,283.4-0.1,255.7,0
	c-46.6,0.1-90.4,18.5-123.3,51.8c-33,33.3-50.9,77.4-50.4,123.9c0.4,37.2,12.3,72.6,34.5,102.4c7.1,9.5,10.9,20.7,10.9,32.2v1
	c0,16.3,7.4,30.8,19,40.6c-11.2,5.1-19,16.3-19,29.4c0,14.8,10.1,27.4,23.7,31.1c-3.5,5.2-5.6,11.4-5.6,18.2
	c0,17.8,14.5,32.3,32.3,32.3h21.7c3.7,27.8,27.6,49.2,56.4,49.2s52.6-21.5,56.4-49.2h21.7c17.8,0,32.3-14.5,32.3-32.3
	c0-6.7-2.1-13-5.6-18.2c13.7-3.8,23.7-16.3,23.7-31.1c0-12.9-7.6-24.1-18.6-29.2c11.7-9.7,19.2-24.4,19.2-40.7v-1
	c0-11.5,3.7-22.7,10.4-31.5c22.9-30.4,35-66.6,35-104.8C430.1,146.2,423.7,119.5,411.1,94.8z M255.8,496.7
	c-20.3,0-37.3-14.7-40.9-34h81.8C293.1,482.1,276.1,496.7,255.8,496.7z M351.9,364.2c9.4,0,17,7.6,17,17c0,9.4-7.6,17-17,17H219.1
	c-4.2,0-7.6,3.4-7.6,7.6c0,4.2,3.4,7.6,7.6,7.6h114.7c9.4,0,17,7.6,17,17c0,9.4-7.6,17-17,17h-156c-9.4,0-17-7.6-17-17
	c0-9.4,7.6-17,17-17h10.8c4.2,0,7.6-3.4,7.6-7.6c0-4.2-3.4-7.6-7.6-7.6h-28.9c-9.4,0-17-7.6-17-17c0-9.4,7.6-17,17-17H351.9z"/>
</svg>
